<svg xmlns="http://www.w3.org/2000/svg" viewBox="0 0 4000 4000">
  <path fill="#fff" d="M1749.432,604.554c63.402-96.238,172.433-159.754,296.298-159.754     c148.639,0,275.915,91.464,328.618,221.179c3.052,7.512,10.129,12.458,18.233,12.728c182.031,6.08,289.3,135.89,289.3,295.288     c0,146.716-106.872,267.919-247.014,291.097c-3.054,0.505-5.355,3.015-5.51,6.107l-23.018,519.95h-983.428l-23.571-551.238     L1749.432,604.554z"/>
  <path fill="#43256d" d="M2406.34,1815.28h-983.428c-12.926,0-23.556-10.186-24.108-23.099l-23.571-551.238     c-0.569-13.315,9.762-24.57,23.077-25.139c13.315-0.574,24.57,9.762,25.139,23.077l22.583,528.138h937.223l21.996-496.886     c0.002-0.044,0.004-0.088,0.006-0.132c0.722-14.527,11.28-26.335,25.673-28.715c131.428-21.737,226.82-134.149,226.82-267.29     c0-156.882-106.886-265.857-265.975-271.171c-17.553-0.586-33.17-11.484-39.783-27.764     c-50.876-125.219-171.092-206.13-306.263-206.13c-111.491,0-214.723,55.663-276.147,148.899     c-7.331,11.128-22.297,14.206-33.426,6.875c-11.129-7.331-14.207-22.297-6.875-33.425     c70.38-106.83,188.678-170.609,316.448-170.609c76.826,0,150.803,22.884,213.932,66.176     c60.963,41.806,107.993,99.803,136.133,167.832c92.481,3.621,171.053,37.381,227.342,97.719     c26.831,28.761,47.608,62.627,61.754,100.655c14.013,37.672,21.119,78.363,21.119,120.943     c0,76.187-27.265,149.911-76.773,207.591c-45.791,53.349-108,90.159-176.392,104.664l-22.399,505.967     C2429.875,1805.116,2419.252,1815.28,2406.34,1815.28z"/>
  <path fill="#fff" d="M1418.179,1573.588h982.113H1418.179z"/>
  <path fill="#43256d" d="M2400.292,1597.719h-982.113c-13.327,0-24.13-10.804-24.13-24.13     c0-13.327,10.803-24.13,24.13-24.13h982.113c13.327,0,24.13,10.803,24.13,24.13     C2424.423,1586.915,2413.619,1597.719,2400.292,1597.719z"/>
  <path fill="#fff" d="M1860.963,726c-62.576-110.502-181.214-185.075-317.27-185.075     c-201.229,0-364.356,163.128-364.356,364.356s163.128,364.356,364.356,364.356L1860.963,726z"/>
  <path fill="#43256d" d="M1543.693,1293.769c-52.435,0-103.314-10.275-151.224-30.539     c-46.263-19.568-87.808-47.576-123.478-83.246c-35.67-35.67-63.678-77.214-83.246-123.478     c-20.264-47.911-30.539-98.79-30.539-151.224c0-52.435,10.275-103.314,30.539-151.224     c19.568-46.263,47.576-87.808,83.246-123.478c35.67-35.67,77.214-63.678,123.478-83.246     c47.91-20.265,98.789-30.539,151.224-30.539c70.029,0,138.682,18.846,198.538,54.498c58.1,34.607,106.418,83.992,139.729,142.816     c6.567,11.597,2.49,26.321-9.106,32.888c-11.597,6.568-26.321,2.49-32.888-9.107     c-60.372-106.608-173.897-172.835-296.273-172.835c-187.601,0-340.226,152.625-340.226,340.226     c0,187.602,152.625,340.226,340.226,340.226c13.327,0,24.13,10.803,24.13,24.13     C1567.823,1282.965,1557.019,1293.769,1543.693,1293.769z"/>
  <path fill="#fff" d="M1663.744,1573.588c0-6.695-17.942-181.401-17.942-181.401L1663.744,1573.588z"/>
  <path fill="#43256d" d="M1663.744,1597.719c-13.141,0-23.829-10.504-24.124-23.574     c-0.507-9.267-11.178-114.794-17.822-179.492c-1.361-13.257,8.281-25.108,21.538-26.469c13.255-1.368,25.108,8.281,26.469,21.538     c8.243,80.261,18.068,177.311,18.068,183.866C1687.875,1586.915,1677.071,1597.719,1663.744,1597.719z M1639.614,1573.588     c0,0.112,0,0.256,0.004,0.433C1639.615,1573.877,1639.614,1573.733,1639.614,1573.588z"/>
  <path fill="#fff" d="M1918.054,1573.588v-254.632V1573.588z"/>
  <path fill="#43256d" d="M1918.054,1597.719c-13.327,0-24.13-10.804-24.13-24.13v-254.632     c0-13.327,10.804-24.13,24.13-24.13c13.327,0,24.13,10.804,24.13,24.13v254.632     C1942.185,1586.915,1931.381,1597.719,1918.054,1597.719z"/>
  <g>
    <path fill="#fff" d="M2164.909,1573.588c0-6.695,17.941-181.401,17.941-181.401L2164.909,1573.588z"/>
    <path fill="#43256d" d="M2164.909,1597.719c-13.327,0-24.13-10.804-24.13-24.13c0-6.555,9.825-103.605,18.068-183.866     c1.361-13.256,13.204-22.897,26.469-21.539c13.257,1.361,22.9,13.212,21.539,26.469c-6.644,64.698-17.314,170.225-17.821,179.492     C2188.738,1587.214,2178.05,1597.719,2164.909,1597.719z M2189.039,1573.588c0,0.145-0.002,0.289-0.004,0.433     C2189.039,1573.844,2189.039,1573.7,2189.039,1573.588z"/>
  </g>
  <g>
    <path fill="#fff" d="M1086.762,3474.528v-303.697c0-170.008,137.819-307.827,307.827-307.827h1108.627       l218.163,72.178l29.154,539.345H1086.762z"/>
    <path fill="#43256d" d="M2750.511,3498.659c-12.731,0.001-23.379-9.964-24.074-22.829l-28.265-522.909l-198.844-65.787       H1394.589c-156.431,0-283.696,127.266-283.696,283.696v303.697c0,13.327-10.803,24.13-24.13,24.13       c-13.327,0-24.13-10.803-24.13-24.13v-303.697c0-44.803,8.78-88.279,26.097-129.22c16.721-39.531,40.653-75.03,71.131-105.508       c30.479-30.479,65.977-54.411,105.509-71.132c40.941-17.316,84.417-26.096,129.22-26.096h1108.627       c2.575,0,5.135,0.412,7.58,1.222l218.163,72.178c9.426,3.118,15.979,11.692,16.516,21.606l29.153,539.345       c0.719,13.307-9.485,24.679-22.793,25.398C2751.392,3498.647,2750.949,3498.659,2750.511,3498.659z"/>
    <path d="M1544.43,3555.2v-332.046c0-58.729,74.32-106.337,165.999-106.337h342.255       c91.679,0,166,47.609,166,106.337V3555.2H1544.43z" style="fill: rgb(140, 120, 255);"/>
    <path fill="#43256d" d="M2218.684,3579.33c-13.327,0-24.13-10.803-24.13-24.13v-332.046       c0-26.84-23.499-45.9-37.506-54.873c-27.516-17.626-64.579-27.334-104.363-27.334h-342.255       c-39.783,0-76.847,9.708-104.364,27.334c-14.007,8.973-37.505,28.033-37.505,54.873V3555.2c0,13.327-10.804,24.13-24.13,24.13       c-13.327,0-24.13-10.803-24.13-24.13v-332.046c0-19.165,5.733-37.563,17.039-54.687c10.23-15.492,24.594-29.228,42.696-40.823       c35.19-22.542,81.499-34.957,130.395-34.957h342.255c48.896,0,95.205,12.415,130.395,34.957       c18.102,11.595,32.467,25.331,42.696,40.823c11.305,17.124,17.039,35.523,17.039,54.687V3555.2       C2242.814,3568.527,2232.011,3579.33,2218.684,3579.33z"/>
    <path fill="#ffa578" d="M1642.688,2863.004v254.503V2863.004z"/>
    <path fill="#43256d" d="M1642.688,3141.638c-13.327,0-24.13-10.803-24.13-24.13v-254.503       c0-13.327,10.804-24.13,24.13-24.13c13.327,0,24.13,10.803,24.13,24.13v254.503       C1666.818,3130.834,1656.015,3141.638,1642.688,3141.638z"/>
    <path fill="#ffa578" d="M2098.172,2863.004v247.101V2863.004z"/>
    <path fill="#43256d" d="M2098.173,3134.236c-13.327,0-24.13-10.803-24.13-24.13v-247.101       c0-13.327,10.803-24.13,24.13-24.13s24.13,10.803,24.13,24.13v247.101C2122.303,3123.432,2111.5,3134.236,2098.173,3134.236z"/>
    <path fill="#61ede5" d="M1271.911,2023.89h-64.567c-66.595,0-120.581,53.986-120.581,120.581v167.797       c0,66.595,53.986,120.581,120.581,120.581h64.567V2023.89z"/>
    <path fill="#43256d" d="M1271.911,2456.979h-64.568c-79.794,0-144.712-64.917-144.712-144.711v-167.797       c0-79.794,64.917-144.711,144.712-144.711h64.568c13.327,0,24.13,10.803,24.13,24.13c0,13.327-10.804,24.13-24.13,24.13       h-64.568c-53.183,0-96.451,43.267-96.451,96.45v167.797c0,53.183,43.268,96.45,96.451,96.45h64.568       c13.327,0,24.13,10.803,24.13,24.13S1285.237,2456.979,1271.911,2456.979z"/>
    <path fill="#61ede5" d="M2532.373,2432.848h64.567c66.595,0,120.581-53.986,120.581-120.581v-167.797       c0-66.595-53.986-120.581-120.581-120.581h-64.567V2432.848z"/>
    <path fill="#43256d" d="M2596.939,2456.979h-64.567c-13.327,0-24.13-10.803-24.13-24.13s10.803-24.13,24.13-24.13       h64.567c53.184,0,96.451-43.268,96.451-96.45v-167.797c0-53.183-43.268-96.45-96.451-96.45h-64.567       c-13.327,0-24.13-10.803-24.13-24.13c0-13.327,10.803-24.13,24.13-24.13h64.567c79.794,0,144.712,64.917,144.712,144.711       v167.797C2741.651,2392.062,2676.734,2456.979,2596.939,2456.979z"/>
    <path fill="#61ede5" d="M2225.999,2721.503h-647.715c-169.53,0-306.961-137.431-306.961-306.961v-372.346       c0-169.53,137.431-306.961,306.961-306.961h647.715c169.53,0,306.961,137.431,306.961,306.961v372.346       C2532.96,2584.072,2395.529,2721.503,2225.999,2721.503z"/>
    <path fill="#43256d" d="M2225.999,2745.634h-647.715c-44.686,0-88.049-8.758-128.883-26.029       c-39.429-16.677-74.834-40.547-105.234-70.946c-30.399-30.399-54.268-65.805-70.946-105.234       c-17.271-40.834-26.029-84.197-26.029-128.883v-372.346c0-44.686,8.757-88.049,26.029-128.883       c16.677-39.429,40.547-74.834,70.946-105.234s65.805-54.269,105.234-70.946c40.834-17.271,84.197-26.029,128.883-26.029       h647.715c44.686,0,88.049,8.757,128.883,26.029c39.429,16.677,74.835,40.547,105.234,70.946       c30.4,30.399,54.269,65.805,70.946,105.234c17.271,40.834,26.029,84.197,26.029,128.883v372.346       c0,44.686-8.757,88.049-26.029,128.883c-16.677,39.429-40.547,74.835-70.946,105.234       c-30.399,30.4-65.804,54.269-105.234,70.946C2314.048,2736.877,2270.685,2745.634,2225.999,2745.634z M1578.284,1759.365       c-155.954,0-282.831,126.877-282.831,282.831v372.346c0,155.954,126.877,282.831,282.831,282.831h647.715       c155.954,0,282.831-126.877,282.831-282.831v-372.346c0-155.953-126.877-282.831-282.831-282.831H1578.284z"/>
    <path fill="#fff" d="M2180.84,2562.993h-557.397c-103.219,0-186.894-83.676-186.894-186.894V2080.64       c0-103.219,83.675-186.894,186.894-186.894h557.397c103.219,0,186.894,83.675,186.894,186.894v295.459       C2367.734,2479.317,2284.059,2562.993,2180.84,2562.993z"/>
    <path fill="#43256d" d="M2180.84,2587.123h-557.397c-56.366,0-109.36-21.951-149.217-61.807       c-39.857-39.857-61.808-92.85-61.808-149.217V2080.64c0-56.367,21.951-109.36,61.808-149.217       c39.857-39.857,92.85-61.808,149.217-61.808h557.397c56.367,0,109.36,21.951,149.216,61.808       c39.857,39.857,61.808,92.85,61.808,149.217v295.458c0,56.367-21.951,109.36-61.808,149.217       C2290.199,2565.172,2237.207,2587.123,2180.84,2587.123z M1623.443,1917.876c-89.748,0-162.764,73.016-162.764,162.764v295.458       c0,89.749,73.016,162.764,162.764,162.764h557.397c89.749,0,162.764-73.015,162.764-162.764V2080.64       c0-89.748-73.015-162.764-162.764-162.764H1623.443z"/>
    <circle cx="1726.815" cy="2125.876" r="87.819" transform="rotate(-45.001 1726.799 2125.907)" style="fill: rgb(97, 237, 229);"/>
    <path fill="#43256d" d="M1726.815,2237.825c-61.729,0-111.949-50.22-111.949-111.949        c0-61.729,50.22-111.949,111.949-111.949c61.729,0,111.949,50.22,111.949,111.949        C1838.764,2187.605,1788.544,2237.825,1726.815,2237.825z M1726.815,2062.188c-35.118,0-63.689,28.571-63.689,63.688        c0,35.118,28.571,63.688,63.689,63.688c35.118,0,63.688-28.57,63.688-63.688        C1790.504,2090.759,1761.933,2062.188,1726.815,2062.188z"/>
    <circle cx="2077.468" cy="2125.876" r="87.819" transform="rotate(-45.001 2077.453 2125.91)" style="fill: rgb(97, 237, 229);"/>
    <path fill="#43256d" d="M2077.468,2237.825c-61.729,0-111.95-50.22-111.95-111.949        c0-61.729,50.221-111.949,111.95-111.949c61.729,0,111.949,50.22,111.949,111.949        C2189.417,2187.605,2139.197,2237.825,2077.468,2237.825z M2077.468,2062.188c-35.119,0-63.689,28.571-63.689,63.688        c0,35.118,28.571,63.688,63.689,63.688c35.117,0,63.688-28.57,63.688-63.688        C2141.156,2090.759,2112.586,2062.188,2077.468,2062.188z"/>
    <g>
      <path fill="#43256d" d="M1902.141,2476.467c-41.269,0-80.274-13.284-109.83-37.405       c-30.984-25.285-48.048-59.335-48.048-95.875c0-13.327,10.803-24.13,24.13-24.13h267.495c13.327,0,24.13,10.803,24.13,24.13       c0,36.541-17.064,70.59-48.047,95.875C1982.415,2463.183,1943.41,2476.467,1902.141,2476.467z M1797.06,2367.317       c4.89,12.701,13.636,24.457,25.765,34.355c20.966,17.111,49.135,26.534,79.317,26.534s58.351-9.423,79.317-26.534       c12.129-9.897,20.875-21.654,25.764-34.355H1797.06z"/>
    </g>
    <g>
      <path fill="#ffd17b" d="M2643.946,3547.392v-254.896c0-59.029-20.551-116.74-60.103-160.558     c-51.393-56.936-84.063-142.076-84.063-237.147c0-171.435,105.974-310.343,236.729-310.343     c130.754,0,236.729,138.908,236.729,310.343c0,95.071-32.67,180.211-84.063,237.147     c-39.552,43.818-60.103,101.529-60.103,160.558v254.896H2643.946z"/>
      <path fill="#43256d" d="M2829.073,3571.522c-13.327,0-24.13-10.803-24.13-24.13v-254.896     c0-66.583,23.553-129.346,66.321-176.726c49.471-54.807,77.845-135.351,77.845-220.979c0-77.654-22.866-150.395-64.386-204.824     c-40.037-52.485-92.673-81.388-148.212-81.388c-55.54,0-108.177,28.904-148.213,81.388     c-41.52,54.429-64.386,127.17-64.386,204.824c0,85.628,28.374,166.172,77.845,220.979     c42.768,47.38,66.321,110.142,66.321,176.726v254.896c0,13.327-10.803,24.13-24.13,24.13s-24.13-10.803-24.13-24.13v-254.896     c0-54.615-19.136-105.893-53.885-144.389c-57.375-63.563-90.281-155.893-90.281-253.316c0-88.169,26.379-171.306,74.276-234.095     c23.773-31.164,51.608-55.715,82.732-72.969c32.808-18.188,67.748-27.41,103.852-27.41c36.103,0,71.044,9.221,103.851,27.41     c31.123,17.254,58.958,41.804,82.731,72.969c47.898,62.79,74.276,145.926,74.276,234.095c0,97.423-32.906,189.753-90.281,253.316     c-34.748,38.496-53.884,89.774-53.884,144.389v254.896C2853.203,3560.719,2842.4,3571.522,2829.073,3571.522z"/>
    </g>
    <g>
      <path fill="#fff" d="M2659.085,2601.512v221.498V2601.512z"/>
      <path fill="#43256d" d="M2659.085,2847.14c-13.327,0-24.13-10.803-24.13-24.13v-221.498     c0-13.327,10.803-24.13,24.13-24.13s24.13,10.803,24.13,24.13v221.498C2683.216,2836.336,2672.412,2847.14,2659.085,2847.14z"/>
    </g>
    <g>
      <path fill="#fff" d="M2813.934,2601.512v221.498V2601.512z"/>
      <path fill="#43256d" d="M2813.934,2847.14c-13.327,0-24.13-10.803-24.13-24.13v-221.498     c0-13.327,10.803-24.13,24.13-24.13s24.13,10.803,24.13,24.13v221.498C2838.064,2836.336,2827.26,2847.14,2813.934,2847.14z"/>
    </g>
  </g>
</svg>